<svg width="17" height="15" viewBox="0 0 17 15" fill="none" xmlns="http://www.w3.org/2000/svg">
<path d="M8.50441 14.6L7.32562 13.5635C3.15416 9.9 0.400203 7.48148 0.400203 4.51614C0.394494 3.94782 0.505811 3.38411 0.727642 2.85798C0.949473 2.33185 1.27736 1.85386 1.69213 1.45198C2.1069 1.0501 2.60022 0.7324 3.14323 0.517463C3.68623 0.302525 4.26803 0.194668 4.85457 0.200199C5.54851 0.204708 6.23337 0.353342 6.86299 0.636078C7.49261 0.918814 8.05233 1.32908 8.50441 1.8392C8.95533 1.32995 9.5136 0.920176 10.1416 0.637463C10.7697 0.35475 11.4529 0.205651 12.1454 0.200199C12.732 0.194668 13.3138 0.302525 13.8568 0.517463C14.3998 0.7324 14.8931 1.0501 15.3079 1.45198C15.7226 1.85386 16.0505 2.33185 16.2723 2.85798C16.4942 3.38411 16.6055 3.94782 16.5998 4.51614C16.5998 7.48148 13.8458 9.9 9.67437 13.5721L8.50441 14.6Z" fill="#FF6E6E"/>
</svg>
